<svg width="21" height="21" viewBox="0 0 21 21" fill="none" xmlns="http://www.w3.org/2000/svg">
<path fill-rule="evenodd" clip-rule="evenodd" d="M12.653 0.955567C11.9292 0.338774 11.0094 0 10.0585 0C9.10757 0 8.18775 0.338774 7.46399 0.955567L7.08799 1.27557C6.76778 1.54873 6.36954 1.7139 5.94999 1.74757L5.45699 1.78757C4.50896 1.86301 3.61883 2.27376 2.94626 2.94615C2.27369 3.61854 1.86269 4.50856 1.78699 5.45657L1.74799 5.94957C1.71461 6.369 1.54979 6.76722 1.27699 7.08757L0.955994 7.46357C0.338935 8.18739 0 9.10742 0 10.0586C0 11.0097 0.338935 11.9297 0.955994 12.6536L1.27599 13.0296C1.54915 13.3498 1.71433 13.748 1.74799 14.1676L1.78799 14.6606C1.86344 15.6086 2.27419 16.4987 2.94658 17.1713C3.61896 17.8439 4.50898 18.2549 5.45699 18.3306L5.94999 18.3696C6.36943 18.403 6.76765 18.5678 7.08799 18.8406L7.46399 19.1606C8.18782 19.7776 9.10784 20.1166 10.059 20.1166C11.0101 20.1166 11.9302 19.7776 12.654 19.1606L13.03 18.8406C13.3503 18.5678 13.7486 18.403 14.168 18.3696L14.661 18.3296C15.609 18.2541 16.4992 17.8434 17.1717 17.171C17.8443 16.4986 18.2553 15.6086 18.331 14.6606L18.369 14.1676C18.4027 13.748 18.5678 13.3498 18.841 13.0296L19.161 12.6526C19.7778 11.9288 20.1166 11.009 20.1166 10.0581C20.1166 9.10714 19.7778 8.18732 19.161 7.46357L18.841 7.08757C18.5678 6.76735 18.4027 6.36912 18.369 5.94957L18.33 5.45657C18.2546 4.50854 17.8438 3.6184 17.1714 2.94583C16.499 2.27326 15.609 1.86227 14.661 1.78657L14.168 1.74757C13.7486 1.71418 13.3503 1.54937 13.03 1.27657L12.653 0.955567ZM8.76199 2.47857C9.12384 2.1703 9.58364 2.001 10.059 2.001C10.5343 2.001 10.9942 2.1703 11.356 2.47857L11.733 2.79957C12.3736 3.34552 13.17 3.67551 14.009 3.74257L14.502 3.78257C14.9758 3.8205 15.4205 4.0259 15.7566 4.36197C16.0927 4.69804 16.2981 5.14281 16.336 5.61657L16.376 6.10957C16.443 6.94855 16.773 7.745 17.319 8.38557L17.639 8.76257C17.9473 9.12441 18.1166 9.58422 18.1166 10.0596C18.1166 10.5349 17.9473 10.9947 17.639 11.3566L17.319 11.7336C16.773 12.3741 16.443 13.1706 16.376 14.0096L16.336 14.5026C16.2981 14.9763 16.0927 15.4211 15.7566 15.7572C15.4205 16.0932 14.9758 16.2986 14.502 16.3366L14.009 16.3766C13.17 16.4436 12.3736 16.7736 11.733 17.3196L11.356 17.6396C10.9942 17.9478 10.5343 18.1171 10.059 18.1171C9.58364 18.1171 9.12384 17.9478 8.76199 17.6396L8.38499 17.3196C7.74443 16.7736 6.94798 16.4436 6.10899 16.3766L5.61599 16.3366C5.14206 16.2989 4.69705 16.0936 4.36078 15.7575C4.0245 15.4214 3.81896 14.9765 3.78099 14.5026L3.74099 14.0096C3.67422 13.1707 3.34459 12.3743 2.79899 11.7336L2.47899 11.3566C2.17073 10.9947 2.00142 10.5349 2.00142 10.0596C2.00142 9.58422 2.17073 9.12441 2.47899 8.76257L2.79899 8.38557C3.34495 7.745 3.67494 6.94855 3.74199 6.10957L3.78199 5.61657C3.8197 5.14263 4.025 4.69763 4.3611 4.36135C4.69719 4.02508 5.14208 3.81953 5.61599 3.78157L6.10899 3.74257C6.94798 3.67551 7.74443 3.34552 8.38499 2.79957L8.76199 2.47857ZM13.766 7.76657C13.8615 7.67432 13.9377 7.56398 13.9901 7.44197C14.0425 7.31997 14.0701 7.18875 14.0712 7.05597C14.0724 6.92319 14.0471 6.79151 13.9968 6.66861C13.9465 6.54572 13.8723 6.43406 13.7784 6.34017C13.6845 6.24628 13.5728 6.17203 13.4499 6.12175C13.3271 6.07146 13.1954 6.04616 13.0626 6.04732C12.9298 6.04847 12.7986 6.07606 12.6766 6.12847C12.5546 6.18088 12.4442 6.25706 12.352 6.35257L6.35199 12.3526C6.25648 12.4448 6.1803 12.5552 6.12789 12.6772C6.07548 12.7992 6.0479 12.9304 6.04674 13.0632C6.04559 13.1959 6.07089 13.3276 6.12117 13.4505C6.17145 13.5734 6.24571 13.6851 6.3396 13.779C6.43349 13.8729 6.54514 13.9471 6.66804 13.9974C6.79094 14.0477 6.92262 14.073 7.05539 14.0718C7.18817 14.0707 7.31939 14.0431 7.4414 13.9907C7.5634 13.9383 7.67375 13.8621 7.76599 13.7666L13.766 7.76657ZM9.05899 7.55857C9.05899 7.95639 8.90096 8.33792 8.61965 8.61923C8.33835 8.90053 7.95682 9.05857 7.55899 9.05857C7.16117 9.05857 6.77964 8.90053 6.49833 8.61923C6.21703 8.33792 6.05899 7.95639 6.05899 7.55857C6.05899 7.16074 6.21703 6.77921 6.49833 6.49791C6.77964 6.2166 7.16117 6.05857 7.55899 6.05857C7.95682 6.05857 8.33835 6.2166 8.61965 6.49791C8.90096 6.77921 9.05899 7.16074 9.05899 7.55857ZM12.559 14.0586C12.9568 14.0586 13.3383 13.9005 13.6197 13.6192C13.901 13.3379 14.059 12.9564 14.059 12.5586C14.059 12.1607 13.901 11.7792 13.6197 11.4979C13.3383 11.2166 12.9568 11.0586 12.559 11.0586C12.1612 11.0586 11.7796 11.2166 11.4983 11.4979C11.217 11.7792 11.059 12.1607 11.059 12.5586C11.059 12.9564 11.217 13.3379 11.4983 13.6192C11.7796 13.9005 12.1612 14.0586 12.559 14.0586Z" fill="#D326AB"/>
</svg>
