<svg width="20" height="20" viewBox="0 0 20 20" fill="none" xmlns="http://www.w3.org/2000/svg">
<path fill-rule="evenodd" clip-rule="evenodd" d="M14.5 9C15.9587 9 17.3572 9.57988 18.3887 10.6113C19.4201 11.6428 20 13.0413 20 14.5C20 15.9587 19.4201 17.3572 18.3887 18.3887C17.3572 19.4201 15.9587 20 14.5 20C13.0413 20 11.6428 19.4201 10.6113 18.3887C9.57988 17.3572 9 15.9587 9 14.5C9 13.0413 9.57988 11.6428 10.6113 10.6113C11.6428 9.57988 13.0413 9 14.5 9ZM11.4326 12.5C11.3174 12.5 11.2163 12.5399 11.1299 12.6191C11.0435 12.6984 11 12.803 11 12.9326V16.498C11 16.6277 11.0434 16.7323 11.1299 16.8115C11.2163 16.8907 11.3174 16.9307 11.4326 16.9307C11.4684 16.9306 11.5079 16.9271 11.5508 16.9199C11.594 16.9127 11.6339 16.8941 11.6699 16.8652L14.3496 15.0723C14.415 15.0296 14.4641 14.9767 14.4961 14.915C14.528 14.8535 14.5437 14.7865 14.5439 14.7148C14.5442 14.6433 14.5285 14.5769 14.4961 14.5156C14.4635 14.4542 14.4144 14.4016 14.3496 14.3584L11.6699 12.5645C11.634 12.5357 11.5939 12.5179 11.5508 12.5107C11.5078 12.5036 11.4684 12.5 11.4326 12.5ZM15.7549 12.5C15.6396 12.5 15.5386 12.5399 15.4521 12.6191C15.3657 12.6984 15.3223 12.803 15.3223 12.9326V16.498C15.3223 16.6277 15.3657 16.7323 15.4521 16.8115C15.5386 16.8907 15.6397 16.9307 15.7549 16.9307C15.7907 16.9306 15.8301 16.9271 15.873 16.9199C15.9163 16.9127 15.9562 16.8941 15.9922 16.8652L18.6719 15.0723C18.7373 15.0296 18.7864 14.9767 18.8184 14.915C18.8503 14.8534 18.8659 14.7865 18.8662 14.7148C18.8664 14.6433 18.8508 14.5769 18.8184 14.5156C18.7858 14.4542 18.7367 14.4016 18.6719 14.3584L15.9922 12.5645C15.9562 12.5358 15.9162 12.5179 15.873 12.5107C15.8301 12.5036 15.7907 12.5 15.7549 12.5Z" fill="#D36626"/>
<path d="M14.75 0C15.612 0 16.4384 0.342655 17.0479 0.952148C17.6573 1.56164 18 2.38805 18 3.25V9.02246C17.5324 8.72305 17.0282 8.48476 16.5 8.31348V3.25C16.5 2.284 15.716 1.5 14.75 1.5H3.25C2.284 1.5 1.5 2.284 1.5 3.25V14.75C1.5 15.2141 1.68451 15.6591 2.0127 15.9873C2.34088 16.3155 2.78587 16.5 3.25 16.5H8.31348C8.48476 17.0282 8.72305 17.5324 9.02246 18H3.25C2.38805 18 1.56164 17.6573 0.952148 17.0479C0.342655 16.4384 0 15.612 0 14.75V3.25C0 2.38805 0.342655 1.56164 0.952148 0.952148C1.56164 0.342655 2.38805 0 3.25 0H14.75Z" fill="#D36626"/>
<path fill-rule="evenodd" clip-rule="evenodd" d="M5.25 11C5.84674 11 6.41886 11.2372 6.84082 11.6592C7.26278 12.0811 7.5 12.6533 7.5 13.25C7.5 13.8467 7.26278 14.4189 6.84082 14.8408C6.41886 15.2628 5.84674 15.5 5.25 15.5C4.65326 15.5 4.08114 15.2628 3.65918 14.8408C3.23722 14.4189 3 13.8467 3 13.25C3 12.6533 3.23722 12.0811 3.65918 11.6592C4.08114 11.2372 4.65326 11 5.25 11ZM5.25 12.5C5.05109 12.5 4.86038 12.5791 4.71973 12.7197C4.57907 12.8604 4.5 13.0511 4.5 13.25C4.5 13.4489 4.57907 13.6396 4.71973 13.7803C4.86038 13.9209 5.05109 14 5.25 14C5.44891 14 5.63962 13.9209 5.78027 13.7803C5.92093 13.6396 6 13.4489 6 13.25C6 13.0511 5.92093 12.8604 5.78027 12.7197C5.63962 12.5791 5.44891 12.5 5.25 12.5Z" fill="#D36626"/>
<path fill-rule="evenodd" clip-rule="evenodd" d="M5.25 5.5C5.54547 5.5 5.83835 5.55783 6.11133 5.6709C6.38426 5.78397 6.63192 5.95028 6.84082 6.15918C7.04972 6.36808 7.21603 6.61574 7.3291 6.88867C7.44217 7.16165 7.5 7.45453 7.5 7.75C7.5 8.34674 7.26278 8.91886 6.84082 9.34082C6.41886 9.76278 5.84674 10 5.25 10C4.65326 10 4.08114 9.76278 3.65918 9.34082C3.23722 8.91886 3 8.34674 3 7.75C3 7.45453 3.05783 7.16165 3.1709 6.88867C3.28397 6.61574 3.45028 6.36808 3.65918 6.15918C3.86808 5.95028 4.11574 5.78397 4.38867 5.6709C4.66165 5.55783 4.95453 5.5 5.25 5.5ZM5.25 7C5.05109 7 4.86038 7.07907 4.71973 7.21973C4.57907 7.36038 4.5 7.55109 4.5 7.75C4.5 7.94891 4.57907 8.13962 4.71973 8.28027C4.86038 8.42093 5.05109 8.5 5.25 8.5C5.44891 8.5 5.63962 8.42093 5.78027 8.28027C5.92093 8.13962 6 7.94891 6 7.75C6 7.55109 5.92093 7.36038 5.78027 7.21973C5.63962 7.07907 5.44891 7 5.25 7Z" fill="#D36626"/>
<path d="M14.25 7C14.3714 6.99994 14.4911 7.02961 14.5986 7.08594C14.706 7.14224 14.7982 7.22355 14.8672 7.32324C14.9362 7.42306 14.9803 7.53871 14.9951 7.65918C15.0098 7.77937 14.9949 7.90136 14.9521 8.01465C14.8021 8.00465 14.6513 8 14.5 8C13.6405 7.99947 12.7895 8.16944 11.9961 8.5H9.75C9.55109 8.5 9.36038 8.42093 9.21973 8.28027C9.07907 8.13962 9 7.94891 9 7.75C9 7.55109 9.07907 7.36038 9.21973 7.21973C9.36038 7.07907 9.55109 7 9.75 7H14.25Z" fill="#D36626"/>
<path d="M14.25 3C14.4489 3 14.6396 3.07907 14.7803 3.21973C14.9209 3.36038 15 3.55109 15 3.75C15 3.94891 14.9209 4.13962 14.7803 4.28027C14.6396 4.42093 14.4489 4.5 14.25 4.5H3.75C3.55109 4.5 3.36038 4.42093 3.21973 4.28027C3.07907 4.13962 3 3.94891 3 3.75C3 3.55109 3.07907 3.36038 3.21973 3.21973C3.36038 3.07907 3.55109 3 3.75 3H14.25Z" fill="#D36626"/>
</svg>
