<svg width="38" height="48" viewBox="0 0 38 48" fill="none" xmlns="http://www.w3.org/2000/svg">
<rect width="38" height="48" fill="white"/>
<path d="M14.1291 25.1663L19.8458 30.8829C20.0791 31.1163 20.1911 31.3885 20.1818 31.6996C20.1725 32.0107 20.0508 32.2829 19.8166 32.5163C19.5833 32.7302 19.3111 32.8422 19 32.8523C18.6889 32.8624 18.4166 32.7504 18.1833 32.5163L10.4833 24.8163C10.3666 24.6996 10.2838 24.5732 10.2348 24.4371C10.1858 24.301 10.1621 24.1552 10.1636 23.9996C10.1652 23.8441 10.1897 23.6982 10.2371 23.5621C10.2846 23.426 10.367 23.2996 10.4845 23.1829L18.1845 15.4829C18.3984 15.2691 18.6659 15.1621 18.9871 15.1621C19.3084 15.1621 19.5853 15.2691 19.8178 15.4829C20.0511 15.7163 20.1678 15.9936 20.1678 16.3148C20.1678 16.636 20.0511 16.9129 19.8178 17.1454L14.1291 22.8329H27.1666C27.4972 22.8329 27.7745 22.9449 27.9985 23.1689C28.2225 23.3929 28.3341 23.6698 28.3333 23.9996C28.3325 24.3294 28.2205 24.6067 27.9973 24.8314C27.7741 25.0562 27.4972 25.1678 27.1666 25.1663H14.1291Z" fill="black"/>
</svg>
